<svg width="425" height="298" viewBox="0 0 425 298" fill="none" xmlns="http://www.w3.org/2000/svg">
<g filter="url(#filter0_d_1_204)">
<path d="M403.724 261.171H420.022V288.203H403.724C399.749 288.203 395.906 287.408 392.196 285.818C388.618 284.36 385.504 282.24 382.854 279.457C380.072 276.807 377.952 273.693 376.494 270.116C374.904 266.405 374.109 262.563 374.109 258.587V2.78302H401.339V258.587C401.339 259.913 402.134 260.774 403.724 261.171Z" fill="white"/>
<path d="M360.395 8.54669C363.177 11.3293 365.297 14.5095 366.755 18.0872C368.345 21.7974 369.14 25.6401 369.14 29.6153V288.202H341.91V170.139H336.941V288.202H309.711V29.6153C309.711 25.6401 310.506 21.7974 312.096 18.0872C313.553 14.5095 315.674 11.3293 318.456 8.54669C321.106 5.89655 324.22 3.77644 327.798 2.18636C331.508 0.728787 335.351 0 339.326 0C343.301 0 347.21 0.728787 351.053 2.18636C354.498 3.77644 357.612 5.89655 360.395 8.54669ZM341.91 145.095V29.6153C341.91 28.1577 341.049 27.2964 339.326 27.0314C338.001 27.0314 337.206 27.8927 336.941 29.6153V145.095H341.91Z" fill="white"/>
<path d="M277.512 145.294V2.78302H304.742V145.493L291.624 288.6H258.033C253.793 241.03 249.553 193.46 245.312 145.89V2.78302H272.543V145.294L274.331 231.159H275.922C276.319 202.537 276.849 173.916 277.512 145.294Z" fill="white"/>
<path d="M240.343 34.783L240.145 288.202H213.113V34.783H240.343ZM208.144 288.401H180.914V29.814H168.193V2.58386H240.145V29.814H208.144V288.401Z" fill="white"/>
<path d="M100.416 288.203H54.5025L54.3037 32.3983C54.4362 28.2906 55.2975 24.4479 56.8876 20.8702C58.3452 17.2925 60.4653 14.1124 63.2479 11.3297C66.0306 8.67957 69.1445 6.62572 72.5897 5.16814C76.2998 3.57806 80.1425 2.78302 84.1177 2.78302H164.417V29.8144H84.1177C82.7927 29.8144 81.9314 30.6757 81.5339 32.3983V125.617H97.8322V150.661H81.5339V260.973H100.416V288.203ZM164.218 156.822H136.988V62.4111C136.988 60.9535 136.127 60.1585 134.404 60.026C133.079 60.026 132.284 60.821 132.019 62.4111V160.599C132.681 163.381 134.205 165.7 136.59 167.555C138.976 169.278 141.626 171 144.541 172.723C147.456 174.578 150.371 176.764 153.286 179.282C156.334 181.8 158.918 184.98 161.038 188.823C162.893 192.798 163.953 196.309 164.218 199.357V260.376C164.218 264.351 163.423 268.194 161.833 271.904C160.375 275.482 158.255 278.662 155.473 281.445C152.69 284.095 149.576 286.215 146.131 287.805C142.553 289.263 138.644 289.992 134.404 289.992C130.429 289.992 126.586 289.263 122.876 287.805C119.298 286.215 116.184 284.095 113.534 281.445C110.752 278.662 108.632 275.482 107.174 271.904C105.584 268.194 104.789 264.351 104.789 260.376V199.357H132.019V260.376C132.019 261.701 132.814 262.563 134.404 262.96C135.862 262.96 136.723 262.099 136.988 260.376V200.152C136.988 199.754 136.855 199.291 136.59 198.761C136.325 198.363 136.06 198.032 135.795 197.767C135.663 197.502 135.464 197.303 135.199 197.171C133.344 195.978 129.369 193.063 123.274 188.425C117.178 183.787 112.607 179.481 109.559 175.506C107.969 172.325 107.174 170.735 107.174 170.735C105.584 167.025 104.789 163.183 104.789 159.207V62.4111C104.789 61.616 105.054 59.4297 105.584 55.852C105.981 54.1294 106.511 52.4731 107.174 50.883C108.632 47.3053 110.752 44.1914 113.534 41.5413C116.184 38.7586 119.298 36.6385 122.876 35.1809C126.586 33.5909 130.429 32.7958 134.404 32.7958C138.644 32.7958 142.553 33.5909 146.131 35.1809C149.576 36.6385 152.69 38.7586 155.473 41.5413C158.255 44.1914 160.375 47.3053 161.833 50.883C163.423 54.5932 164.218 58.4359 164.218 62.4111V156.822Z" fill="white"/>
<path d="M32.0427 288.401H4.8125V2.78302H50.7261V30.0132H32.0427V126.014H48.1422V151.058H32.0427V288.401Z" fill="white"/>
</g>
<defs>
<filter id="filter0_d_1_204" x="0.8125" y="0" width="423.21" height="297.992" filterUnits="userSpaceOnUse" color-interpolation-filters="sRGB">
<feFlood flood-opacity="0" result="BackgroundImageFix"/>
<feColorMatrix in="SourceAlpha" type="matrix" values="0 0 0 0 0 0 0 0 0 0 0 0 0 0 0 0 0 0 127 0" result="hardAlpha"/>
<feOffset dy="4"/>
<feGaussianBlur stdDeviation="2"/>
<feComposite in2="hardAlpha" operator="out"/>
<feColorMatrix type="matrix" values="0 0 0 0 0 0 0 0 0 0 0 0 0 0 0 0 0 0 0.25 0"/>
<feBlend mode="normal" in2="BackgroundImageFix" result="effect1_dropShadow_1_204"/>
<feBlend mode="normal" in="SourceGraphic" in2="effect1_dropShadow_1_204" result="shape"/>
</filter>
</defs>
</svg>
